{"asset":{"version":"2.0","generator":"Blockbench 4.6.5 glTF exporter"},"scenes":[{"nodes":[3],"name":"blockbench_export"}],"scene":0,"nodes":[{"name":"sphere","mesh":0},{"rotation":[-1,0,0,6.123233995736766e-17],"name":"sphere","mesh":1},{"name":"cylinder","mesh":2},{"children":[0,1,2]}],"bufferViews":[{"buffer":0,"byteOffset":0,"byteLength":1584,"target":34962,"byteStride":12},{"buffer":0,"byteOffset":1584,"byteLength":1584,"target":34962,"byteStride":12},{"buffer":0,"byteOffset":3168,"byteLength":1056,"target":34962,"byteStride":8},{"buffer":0,"byteOffset":4224,"byteLength":360,"target":34963},{"buffer":0,"byteOffset":4584,"byteLength":1584,"target":34962,"byteStride":12},{"buffer":0,"byteOffset":6168,"byteLength":1584,"target":34962,"byteStride":12},{"buffer":0,"byteOffset":7752,"byteLength":1056,"target":34962,"byteStride":8},{"buffer":0,"byteOffset":8808,"byteLength":360,"target":34963},{"buffer":0,"byteOffset":9168,"byteLength":1440,"target":34962,"byteStride":12},{"buffer":0,"byteOffset":10608,"byteLength":1440,"target":34962,"byteStride":12},{"buffer":0,"byteOffset":12048,"byteLength":960,"target":34962,"byteStride":8},{"buffer":0,"byteOffset":13008,"byteLength":288,"target":34963}],"buffers":[{"byteLength":13296,"uri":"data:application/octet-stream;base64,"}],"accessors":[{"bufferView":0,"componentType":5126,"count":132,"max":[0.5,3.0616171314629196e-17,0.5],"min":[-0.5,-0.5,-0.5],"type":"VEC3"},{"bufferView":1,"componentType":5126,"count":132,"max":[0.9659258127212524,-0.258819043636322,0.9659258127212524],"min":[-0.9659258127212524,-0.9659258127212524,-0.9659258127212524],"type":"VEC3"},{"bufferView":2,"componentType":5126,"count":132,"max":[0.26794999837875366,1],"min":[0,0.7411749958992004],"type":"VEC2"},{"bufferView":3,"componentType":5123,"count":180,"max":[131],"min":[0],"type":"SCALAR"},{"bufferView":4,"componentType":5126,"count":132,"max":[0.5,-0.875,0.5],"min":[-0.5,-1.375,-0.5],"type":"VEC3"},{"bufferView":5,"componentType":5126,"count":132,"max":[0.9659258127212524,-0.258819043636322,0.9659258127212524],"min":[-0.9659258127212524,-0.9659258127212524,-0.9659258127212524],"type":"VEC3"},{"bufferView":6,"componentType":5126,"count":132,"max":[0.26794999837875366,1],"min":[0,0.7411749958992004],"type":"VEC2"},{"bufferView":7,"componentType":5123,"count":180,"max":[131],"min":[0],"type":"SCALAR"},{"bufferView":8,"componentType":5126,"count":120,"max":[0.5,0.875,0.5],"min":[-0.5,0,-0.5],"type":"VEC3"},{"bufferView":9,"componentType":5126,"count":120,"max":[1,1,1],"min":[-1,-1,-1],"type":"VEC3"},{"bufferView":10,"componentType":5126,"count":120,"max":[0.5176382064819336,1],"min":[0,0.125],"type":"VEC2"},{"bufferView":11,"componentType":5123,"count":144,"max":[119],"min":[0],"type":"SCALAR"}],"materials":[{"pbrMetallicRoughness":{"metallicFactor":0,"roughnessFactor":1},"alphaMode":"MASK","alphaCutoff":0.05,"doubleSided":true}],"meshes":[{"primitives":[{"mode":4,"attributes":{"POSITION":0,"NORMAL":1,"TEXCOORD_0":2},"indices":3,"material":0}]},{"primitives":[{"mode":4,"attributes":{"POSITION":4,"NORMAL":5,"TEXCOORD_0":6},"indices":7,"material":0}]},{"primitives":[{"mode":4,"attributes":{"POSITION":8,"NORMAL":9,"TEXCOORD_0":10},"indices":11,"material":0}]}]}